
<svg xmlns="http://www.w3.org/2000/svg" version="1.1" xmlns:xlink="http://www.w3.org/1999/xlink" width="2000" height="1500" viewBox="0 0 2000 1500"><rect width="2000" height="1500" x="0" y="0" id="background" stroke="transparent" fill="#101d25"></rect><svg xml:space="preserve" width="1500" height="1125" data-version="2" data-id="lg_2rhh30yl7jmLXwwOUG" viewBox="0 0 227 360" x="250" y="187.5"><rect width="100%" height="100%" fill="transparent"></rect><path fill="#61d69b" d="M118.251 347.854 78.75 66.817l-53.87 7.572-6.584-46.84L177.549 5.165l6.584 46.84-53.86 7.57 39.502 281.037z"></path><rect width="160.82" height="331.1" x="-80.41" y="-165.55" fill="none" rx="0" ry="0" transform="rotate(-8 1352.72 -778.42)"></rect><path fill="#2e4350" d="M102.192 346.415 62.69 65.377l-53.861 7.57-6.584-46.839L161.5 3.724l6.584 46.84-53.87 7.571 39.501 281.038z"></path><rect width="160.82" height="331.1" x="-80.41" y="-165.55" fill="none" rx="0" ry="0" transform="rotate(-8 1334.4 -664.4)"></rect></svg></svg>